<svg class="logo-mark" width="36px" height="36px" viewBox="0 0 36 36" version="1.1" xmlns="http://www.w3.org/2000/svg" xmlns:xlink="http://www.w3.org/1999/xlink">
	<title>clearsurance icon</title>
	<g id="clearsurance-icon" stroke="none" stroke-width="1" fill="none" fill-rule="evenodd">
		<path d="M17.8393478,33.1827059 L18.1209771,36 L16.9807789,36 L17.3288113,33.1827059 L17.8393478,33.1827059 Z M21.8046484,32.6782424 L22.8711025,35.4254629 L21.6808516,35.7381248 L21.2714214,32.818056 L21.8046484,32.6782424 Z M13.4363873,32.4693896 L13.9692807,32.6102042 L13.4907778,35.5296057 L12.3001933,35.2149416 L13.4363873,32.4693896 Z M25.4332618,31.1482011 L27.1827671,33.5347092 L26.1199835,34.1383435 L24.9574284,31.4184852 L25.4332618,31.1482011 Z M9.82058738,30.8003022 L10.2834071,31.0739231 L9.09215518,33.7907783 L8.05806843,33.1798028 L9.82058738,30.8003022 Z M28.5361561,28.7837162 L30.799201,30.6416688 L29.9516436,31.4958999 L28.1564236,29.1661181 L28.5361561,28.7837162 Z M6.77148299,28.2967044 L7.15388487,28.6761031 L5.29559862,30.9394818 L4.44170123,30.0919244 L6.77148299,28.2967044 Z M31.0035825,25.6541606 L33.720104,26.8824515 L33.1087949,27.9489056 L30.7296279,26.1316624 L31.0035825,25.6541606 Z M4.51881561,25.0977092 L4.78943334,25.5742099 L2.4029253,27.3233815 L1.79895724,26.2599306 L4.51881561,25.0977092 Z M32.4695898,21.9683204 L35.3889912,22.4474906 L35.0746609,23.6374078 L32.3291088,22.5012138 L32.4695898,21.9683204 Z M3.11954508,21.3424627 L3.25935868,21.8756897 L0.512138219,22.9418101 L0.199476301,21.751893 L3.11954508,21.3424627 Z M36,17.746884 L36,18.8874159 L33.1827059,18.5387162 L33.1827059,18.0285133 L36,17.746884 Z M0,17.0516534 L2.8172941,17.3996858 L2.8172941,17.9102223 L0,18.1921853 L0,17.0516534 Z M35.2850486,13.0664986 L35.5977106,14.2567495 L32.6776418,14.6661797 L32.5378282,14.1329527 L35.2850486,13.0664986 Z M0.72249262,12.3710344 L3.46804466,13.5072284 L3.32756369,14.0401218 L0.408162282,13.5616189 L0.72249262,12.3710344 Z M33.3942616,8.75483402 L33.9982296,9.81795127 L31.2780376,10.9801727 L31.0077535,10.5040056 L33.3942616,8.75483402 Z M2.75796508,8.12894292 L5.13713208,9.94651972 L4.86317751,10.4240215 L2.14665598,9.1957307 L2.75796508,8.12894292 Z M30.5015549,5.06916065 L31.3554523,5.91671803 L29.0253368,7.71160432 L28.6432686,7.33187192 L30.5015549,5.06916065 Z M5.84584355,4.51257572 L7.64072984,6.84235748 L7.26099744,7.22475935 L4.99828616,5.3664731 L5.84584355,4.51257572 Z M26.705332,2.21749709 L27.7390851,2.8288062 L25.9765661,5.20797319 L25.5137464,4.93401862 L26.705332,2.21749709 Z M9.74707679,1.86979835 L10.9092982,4.58965672 L10.4331311,4.86027446 L8.68395953,2.47376641 L9.74707679,1.86979835 Z M22.3763159,0.479036765 L23.5665667,0.793367103 L22.4303727,3.53891914 L21.8974793,3.39843817 L22.3763159,0.479036765 Z M14.185875,0.270484259 L14.5953053,3.19055303 L14.0620782,3.33036664 L12.9956241,0.582812493 L14.185875,0.270484259 Z M18.816408,0 L18.4680419,2.8172941 L17.9575053,2.8172941 L17.6762097,0 L18.816408,0 Z" id="Ticks" fill="#0077D3"></path>
		<path d="M27.3162632,11.3749551 C27.196611,11.1979276 26.9472273,11.0829918 26.7098738,11.1933037 L16.9617988,15.4564964 C15.42778,16.1319092 14.8626836,18.0702946 15.8212015,19.4842028 C16.7793943,20.8984414 18.7556059,21.0434322 19.9170122,19.8174505 L27.2687925,12.018001 C27.4528227,11.8304047 27.4492461,11.5714689 27.3162632,11.3749551 M18.5159764,18.7159826 C18.1118252,19.0013404 17.5382751,18.9124964 17.2453224,18.4795056 C16.9526948,18.0478359 17.0525133,17.4824047 17.4768233,17.182845 C17.8812997,16.8981478 18.4545246,16.9869918 18.7474773,17.4196524 C19.0401049,17.8513221 18.9198024,18.4309551 18.5159764,18.7159826" id="Dial" fill="#333333"></path>
		<path d="M11.2267249,8.13152117 C15.860821,4.95956747 21.9018957,5.42432765 26,8.88382584 L22.3911279,10.4163622 C19.5684469,8.86831085 15.9822567,8.90071994 13.1487581,10.8400938 C9.15603765,13.5731457 8.16047468,18.976155 10.9206931,22.9286852 C13.6819583,26.8812153 19.1399326,27.8669344 23.1124137,25.1483632 L25.0145567,27.8717613 C19.5126144,31.6377667 11.9549898,30.2731371 8.15105295,24.826341 C4.34467339,19.3795448 5.72443364,11.8971819 11.2267249,8.13152117" id="C" fill="#0077D3"></path>
	</g>
</svg>