<svg id="Layer_1" data-name="Layer 1" xmlns="http://www.w3.org/2000/svg" viewBox="0 0 219.92 160.74"><defs><style>.cls-1{fill:#231f20;}</style></defs><path class="cls-1" d="M503.42,444.59v49.6h-11.9l-1.4-5.3a13.87,13.87,0,0,1-6.95,5.2,27.35,27.35,0,0,1-8.45,1.3,23,23,0,0,1-9.75-2.05,24.35,24.35,0,0,1-7.75-5.6,25.82,25.82,0,0,1-5.15-8.3,28.77,28.77,0,0,1,0-20.3,26,26,0,0,1,5.15-8.3,24.66,24.66,0,0,1,7.75-5.6,23.14,23.14,0,0,1,9.75-2.05,24.85,24.85,0,0,1,8.8,1.5,14.86,14.86,0,0,1,6.6,4.8l1.4-4.9Zm-13.8,24.9a17.87,17.87,0,0,0-1.05-6.55,11.76,11.76,0,0,0-2.8-4.3,10.51,10.51,0,0,0-4.1-2.4,16.49,16.49,0,0,0-5.05-.75,11.82,11.82,0,0,0-5.05,1.1,14.33,14.33,0,0,0-4.15,3,13.19,13.19,0,0,0-2.8,4.4,14.69,14.69,0,0,0-1,5.35,14.49,14.49,0,0,0,1,5.4,13.17,13.17,0,0,0,2.8,4.35,14,14,0,0,0,4.15,2.95,11.68,11.68,0,0,0,5.05,1.1,13.21,13.21,0,0,0,9.15-3.35Q489.52,476.4,489.62,469.49Z" transform="translate(-389.56 -419.75)"/><path class="cls-1" d="M584.29,443.19a22.86,22.86,0,0,1,10.2,2.25,25.84,25.84,0,0,1,7.9,5.9,26.43,26.43,0,0,1,5.1,8.4,26.78,26.78,0,0,1,1,16.15h-35.4a17.1,17.1,0,0,0,5.7,5.75,14.64,14.64,0,0,0,8,2.35,35.87,35.87,0,0,0,7.55-.7,40.77,40.77,0,0,0,6.15-1.8l4.13,7.63.47.87a30.36,30.36,0,0,1-8.45,4,35.47,35.47,0,0,1-10.15,1.4,29.16,29.16,0,0,1-11-2.05,28.74,28.74,0,0,1-8.9-5.55,25.8,25.8,0,0,1-6-8.3,24.29,24.29,0,0,1-2.2-10.2,25.72,25.72,0,0,1,2-10.05,26.06,26.06,0,0,1,5.55-8.3,27.51,27.51,0,0,1,8.25-5.65A24.5,24.5,0,0,1,584.29,443.19Zm11.3,22a14,14,0,0,0-4.3-7,10.36,10.36,0,0,0-7-2.7,11.08,11.08,0,0,0-7.25,2.7,13.68,13.68,0,0,0-4.45,7Z" transform="translate(-389.56 -419.75)"/><path class="cls-1" d="M443,419.75v53.12a22.77,22.77,0,1,1-43.31-9.81l13-13v22.77a7.59,7.59,0,1,0,15.17,0V434.93Z" transform="translate(-389.56 -419.75)"/><polygon class="cls-1" points="171.17 74.44 154.67 74.44 141.57 54.65 136.67 59.95 136.67 74.44 122.87 74.44 122.87 13.94 136.67 0.14 136.67 41.95 136.81 41.8 152.77 24.84 169.57 24.84 150.27 45.45 171.17 74.44"/><path class="cls-1" d="M424.46,507.29a32.63,32.63,0,0,1,13.6,2.9,35.61,35.61,0,0,1,11.15,7.9,38.08,38.08,0,0,1,7.5,11.6,36.35,36.35,0,0,1,2.75,14.1,36.79,36.79,0,0,1-2.75,14.1,37.61,37.61,0,0,1-7.5,11.7,35.92,35.92,0,0,1-11.15,7.95,32.82,32.82,0,0,1-27.2,0,35.13,35.13,0,0,1-11.1-7.95,37.66,37.66,0,0,1-7.45-11.7,36.6,36.6,0,0,1-2.75-14.1,36.17,36.17,0,0,1,2.75-14.1,38.13,38.13,0,0,1,7.45-11.6,34.83,34.83,0,0,1,11.1-7.9A32.6,32.6,0,0,1,424.46,507.29Zm.05,58.1a17.67,17.67,0,0,0,7.68-1.7,19.91,19.91,0,0,0,6.28-4.65,22,22,0,0,0,4.24-6.85,22.6,22.6,0,0,0,1.55-8.4,23,23,0,0,0-1.55-8.45,22,22,0,0,0-4.24-6.9,20.22,20.22,0,0,0-6.28-4.65,18.2,18.2,0,0,0-15.36,0,20.26,20.26,0,0,0-6.29,4.65,22.2,22.2,0,0,0-4.24,6.9,23,23,0,0,0-1.54,8.45,22.6,22.6,0,0,0,1.54,8.4,22.19,22.19,0,0,0,4.24,6.85,20,20,0,0,0,6.29,4.65A17.6,17.6,0,0,0,424.51,565.39Z" transform="translate(-389.56 -419.75)"/><path class="cls-1" d="M480.53,506.24,466.77,520v59.34h13.8v-73.1Z" transform="translate(-389.56 -419.75)"/><path class="cls-1" d="M519.26,522.94a7.51,7.51,0,0,1-7.6-7.6,7.5,7.5,0,0,1,2.2-5.45,7.6,7.6,0,0,1,10.8,0,7.54,7.54,0,0,1,2.2,5.45,7.51,7.51,0,0,1-7.6,7.6Zm6.9,56.4h-13.8v-49.6h13.8Z" transform="translate(-389.56 -419.75)"/><path class="cls-1" d="M609.48,529.69v49.6H597.57l-1.4-5.3a13.87,13.87,0,0,1-6.95,5.2,27.28,27.28,0,0,1-8.44,1.3,22.93,22.93,0,0,1-9.75-2,24.13,24.13,0,0,1-7.75-5.6,25.67,25.67,0,0,1-5.16-8.3,28.92,28.92,0,0,1,0-20.3,25.89,25.89,0,0,1,5.16-8.3,24.44,24.44,0,0,1,7.75-5.6,23.08,23.08,0,0,1,9.75-2.05,24.84,24.84,0,0,1,8.79,1.5,14.86,14.86,0,0,1,6.6,4.8l1.4-4.9Zm-13.81,24.9a17.87,17.87,0,0,0-1-6.55,11.76,11.76,0,0,0-2.8-4.3,10.51,10.51,0,0,0-4.1-2.4,16.49,16.49,0,0,0-5.05-.75,11.82,11.82,0,0,0-5,1.1,14.33,14.33,0,0,0-4.15,2.95,13.35,13.35,0,0,0-2.8,4.4,14.69,14.69,0,0,0-1,5.35,14.49,14.49,0,0,0,1,5.4,13.33,13.33,0,0,0,2.8,4.35,14,14,0,0,0,4.15,3,11.68,11.68,0,0,0,5,1.1,13.2,13.2,0,0,0,9.15-3.35Q595.57,561.5,595.67,554.59Z" transform="translate(-389.56 -419.75)"/><path class="cls-1" d="M503.34,506.56l-13.76,13.76v59.34h13.8v-73.1Z" transform="translate(-389.56 -419.75)"/><path class="cls-1" d="M548.92,506.24,535.16,520v59.34H549v-73.1Z" transform="translate(-389.56 -419.75)"/></svg>